<svg width="500" height="500" viewBox="0 0 500 500" fill="none" xmlns="http://www.w3.org/2000/svg">
<path d="M250 484.375C379.442 484.375 484.375 379.442 484.375 250C484.375 120.558 379.442 15.625 250 15.625C120.558 15.625 15.625 120.558 15.625 250C15.625 379.442 120.558 484.375 250 484.375Z" stroke="black" stroke-width="2" stroke-miterlimit="10" stroke-linejoin="round"/>
<path d="M406.25 421.875C406.25 335.578 336.297 265.625 250 265.625C163.703 265.625 93.75 335.578 93.75 421.875" stroke="black" stroke-width="2" stroke-miterlimit="10" stroke-linejoin="round"/>
<path d="M250 265.625C301.777 265.625 343.75 223.652 343.75 171.875C343.75 120.098 301.777 78.125 250 78.125C198.223 78.125 156.25 120.098 156.25 171.875C156.25 223.652 198.223 265.625 250 265.625Z" stroke="black" stroke-width="2" stroke-miterlimit="10" stroke-linejoin="round"/>
</svg>
